<?xml version="1.0" encoding="utf-8"?>
<!-- Generator: Adobe Illustrator 24.0.2, SVG Export Plug-In . SVG Version: 6.00 Build 0)  -->
<svg version="1.2" baseProfile="tiny" xmlns="http://www.w3.org/2000/svg" xmlns:xlink="http://www.w3.org/1999/xlink" x="0px"
	 y="0px" viewBox="0 0 500 500" xml:space="preserve">
<g id="Capa_2" display="none">
	<rect y="-1" display="inline" fill="#D6FFE0" width="500" height="500"/>
	<line display="inline" fill="none" stroke="#000000" stroke-miterlimit="10" x1="448.5" y1="40" x2="448.5" y2="0"/>
</g>
<g id="Capa_1">
	<path fill="#2F5392" d="M136.1,357.2c-1.9-9.8-3.4-19.3-5.5-28.6c-7-30.5-18.6-59.3-31.7-87.6c-13-28.1-25.7-56.3-35.7-85.7
		c-5.2-15.1-9.4-30.5-10.6-46.6c-1.1-14.4,0.7-28.4,5.8-41.8C65,49.4,79.4,40.1,99.5,40.1c42-0.1,84.1,0,126.1,0
		c31.4,0,62.9-0.2,94.3,0.1c22.5,0.2,41.9,16.4,45.1,38c2.8,18.6-2.3,34.7-18.3,46.2c-2.9,2.1-6.1,3-9.8,3
		c-13.6-0.2-27.3-0.1-40.9-0.1c-0.9,0-1.8,0-3.1,0c9.6,39.4,25.9,75.8,42.3,112.2c-3.4,2.9-6.8,5.7-10.5,8.8
		c-17.9-39.3-35.6-78.4-45.4-120.9c-1.1,0-2.3,0-3.4,0c-54.2,0-108.5,0-162.7,0c-18,0-29.5-9.6-32.8-27.4
		c-1.1-6.2-1.3-12.3-0.1-18.5c1-5.6,3-7.2,8.8-7.2c11.6,0,23.2,0,34.8,0c0.7,0,1.4-0.1,2.5-0.1c-1.9-7.3-5.3-13.3-11.7-17.1
		C98.2,47.3,76.2,55.3,70,73.3c-5.5,16-5.9,32.4-2.4,48.9c4.7,22.2,12.7,43.4,21.6,64.2c10.3,24.1,21.3,47.8,31.7,71.9
		c11.3,26.2,20.2,53.1,25.4,81.3c3.6,19.7,5.1,39.5,2.5,59.5c-1.6,12.3-5,24.1-11.2,34.9c-2.4,4.2-5.4,8-8.3,12.2c0.8,0,1.8,0,2.8,0
		c48,0,95.9,0,143.9,0c13.4,0,26.8,0.2,40.1-0.2c14.4-0.4,25.2-7.5,32.7-19.7c6.3-10.2,8.9-21.7,10.1-33.5c2.1-21-0.5-41.6-5.2-62
		c-0.4-1.9-0.2-3.1,1.3-4.5c3.1-2.7,6-5.6,9.2-8.6c1.6,7.3,3.3,14.7,4.7,22.1c3,16.5,4.6,33.1,3.4,49.9
		c-1.1,15.8-4.3,31.2-13.1,44.7c-10.4,16-25.3,24.5-44.4,24.7c-20.9,0.3-41.8,0.1-62.8,0.1c-53.5,0-107-0.1-160.6,0.1
		c-14,0.1-25.1-5.3-33.2-16.3c-14.3-19.4-17-40.9-8.5-63.3c5.9-15.4,18.1-22.6,34.5-22.7c16-0.1,32,0,48,0
		C133.3,357.2,134.4,357.2,136.1,357.2z M133.1,113.9c1,0,1.9,0.1,2.8,0.1c66.7,0,133.4,0,200.2,0c1.5,0,3.2-0.6,4.4-1.5
		c11.6-8.4,15.9-27.2,9-40.7c-6.7-13.1-18.1-18.6-32.5-18.6c-61.5,0-123,0-184.5,0c-0.5,0-1,0.1-1.5,0.2
		C143.9,73.2,144.2,93.2,133.1,113.9z M130.6,416.7c-2,0-3.8,0-5.6,0c-9.2,0-18.5,0-27.7,0c-2.8,0-5.1-0.9-6.5-3.5
		c-1.4-2.7-0.9-5.2,0.9-7.5c0.9-1.1,1.7-2.4,2.3-3.6c4-7.8,5.1-15.9,1.4-24.1c-2.3-5.2-6.4-7.8-12.2-7.5
		c-10.3,0.4-17.8,5.2-21.3,14.8c-1.9,5.1-3,10.8-3.2,16.2c-0.6,13.5,2.9,25.8,12.1,36c5.6,6.2,12.6,9.4,21.1,8.6
		c1.6-0.1,3.2-0.1,4.8-0.3C114.1,444.5,127.3,433.3,130.6,416.7z M106.5,370.5c5.6,10.9,5.2,21.8,1.5,33c8.7,0,16.9,0,25.1,0
		c1.7,0,1.9-1.1,2-2.2c0.6-4.5,1.3-9.1,1.6-13.6c0.3-5.7,0.1-11.4,0.1-17.2C126.6,370.5,116.8,370.5,106.5,370.5z M92.7,87.5
		c-0.5,7.6,0.7,14.7,5.3,20.7c4.8,6.3,13.6,7.7,19.4,3c7.4-6,9.4-14.6,10.5-23.7C116,87.5,104.5,87.5,92.7,87.5z"/>
	<path fill="#2F5392" d="M284.8,316.1c0.4,3.7,0.7,6.9,1,10.1c0.3,0,0.5,0,0.8,0c1.7-14.6,7-27.6,17.4-38c-0.6,4.4-1.2,8.9-1.7,13.3
		c0.3,0.1,0.7,0.2,1,0.3c6.4-20.9,17.6-38.5,34.8-52.2c-2.5,5.7-5.4,11.3-5.6,17.7c10-22,26.3-38.4,46-52.1
		c-1.8,5.2-3.4,10.1-5.1,14.9c0.3,0.2,0.6,0.3,0.8,0.5c9.7-19.5,25.1-32.3,45.5-39.8c-1.9,3.6-3.7,7.1-5.5,10.5
		c0.2,0.2,0.3,0.3,0.5,0.5c9.8-14,23.2-21.6,40.4-22.6c-2.5,2.1-5,4.2-7.5,6.3c0.1,0.1,0.2,0.3,0.2,0.4c2.6-1.1,5.1-2.3,7.7-3.3
		c2.7-1,5.4-1.7,8.4-2.1c-6.8,12.3-15.9,22.2-28.2,29.1c0.1,0.3,0.2,0.6,0.3,0.9c3.4-0.9,6.8-1.8,10-2.7c-1.6,9.2-21,26.7-36.5,32.9
		c2.3,0,4.6,0.2,6.9,0c2.3-0.2,4.5-0.9,7.5-1.5c-13.7,16.8-27.3,32.6-49.6,38.5c5.5,1.6,10,0.4,14.8-0.4
		c-15.1,17.8-31.4,33.8-54.7,41.1c2.7,0,5.3,0.3,7.9-0.1c2.7-0.3,5.4-1.2,8.7-2c-6.3,6.6-12.7,12.2-20.5,15.6
		c-7.7,3.3-15.9,5.7-23.6,8.4c3.7,0.2,8,0.4,13.3,0.6c-1.7,1.5-2.9,2.6-4.2,3.6c-8.4,6.1-17.9,8.6-28.1,8.2c-2-0.1-3.3,0.3-4.6,1.9
		c-11.7,14.4-23.5,28.8-35.3,43.1c-1.6,2-3.6,3.7-5.7,5.2c-1.7,1.2-2.9,0.4-2.6-1.5c0.4-2.1,1.1-4.2,2.1-6
		c7.4-13,16.9-24.5,26.2-36.2c2.8-3.5,6.5-6.6,8.2-10.6c1.7-3.9,1.5-8.7,2.2-13C279.7,329,281.3,322.5,284.8,316.1z"/>
	<path fill="#2F5392" d="M228.8,269.4c-22.6,0-45.2,0-67.8,0c-4.6,0-7.4-2.3-7.5-6.3c-0.1-4,2.6-6.8,6.9-6.8c12.5,0,24.9,0,37.4,0
		c32.8,0,65.5,0,98.3,0c4.7,0,7.6,2.1,7.9,5.9c0.4,4.2-2.5,7.2-7.1,7.2c-8.1,0.1-16.2,0-24.2,0C258,269.4,243.4,269.4,228.8,269.4
		C228.8,269.4,228.8,269.4,228.8,269.4z"/>
	<path fill="#2F5392" d="M208.8,210.4c22.7,0,45.4,0,68.1,0c5.4,0,8.7,4.2,7.1,8.8c-0.9,2.4-2.6,3.9-5.1,4.2c-1.5,0.2-3,0.2-4.6,0.2
		c-44.3,0-88.5,0-132.8,0c-4.5,0-7.3-2.1-7.8-5.8c-0.4-3.2,1.6-6.3,4.8-7.2c1.1-0.3,2.3-0.3,3.5-0.3
		C164.3,210.4,186.5,210.4,208.8,210.4z"/>
	<path fill="#2F5392" d="M189.3,177.6c-22.7,0-45.4,0-68.1,0c-3.9,0-6.5-2-7-5.3c-0.5-3.3,1.1-6.2,4.1-7.3c0.7-0.3,1.6-0.4,2.4-0.4
		c45.8,0,91.5,0,137.3,0c3.4,0,6.1,2.2,6.6,5.2c0.6,3.2-1,6.4-4,7.4c-1.2,0.4-2.6,0.5-4,0.5C234.2,177.7,211.8,177.6,189.3,177.6z"
		/>
	<path fill="#2F5392" d="M282.1,302.2c-2.5,4.3-4.9,8.4-7.4,12.4c-0.3,0.5-1.4,0.7-2.1,0.7c-33,0-65.9,0-98.9,0
		c-4.4,0-7.2-2.8-7.2-6.7c0-3.8,2.9-6.5,7.1-6.5c35.9,0,71.8,0,107.7,0C281.4,302,281.6,302.1,282.1,302.2z"/>
	<path fill="#2F5392" d="M264.7,347.9c-3.6,4.5-6.8,8.6-10.1,12.6c-0.4,0.5-1.4,0.6-2.2,0.6c-22.1,0-44.1,0-66.2,0
		c-3.9,0-6.8-2.9-6.8-6.6c0-3.8,2.9-6.6,7.2-6.6c18.4,0,36.8,0,55.2,0c6.5,0,13.1,0,19.6,0C262.4,347.9,263.3,347.9,264.7,347.9z"/>
	<path fill="#2F5392" d="M202.6,393.7c6.4,0,12.7-0.1,19.1,0c4.6,0.1,7.5,3.4,6.9,7.6c-0.5,3.2-3,5.6-6.6,5.6c-13,0.1-26,0.1-39,0
		c-3.9,0-6.8-2.9-6.8-6.6c0-3.8,2.8-6.6,7-6.7C189.7,393.6,196.1,393.7,202.6,393.7z"/>
</g>
</svg>
