<?xml version="1.0" encoding="utf-8"?>
<!-- Generator: Adobe Illustrator 24.0.2, SVG Export Plug-In . SVG Version: 6.00 Build 0)  -->
<svg version="1.2" baseProfile="tiny" xmlns="http://www.w3.org/2000/svg" xmlns:xlink="http://www.w3.org/1999/xlink" x="0px"
	 y="0px" viewBox="0 0 500 500" xml:space="preserve">
<g id="Capa_2" display="none">
	<rect display="inline" fill="#D6FFE0" width="500" height="500"/>
	<line display="inline" fill="none" stroke="#000000" stroke-miterlimit="10" x1="10.5" y1="500" x2="10.5" y2="460"/>
</g>
<g id="Capa_1">
	<path fill="#2F5392" d="M383.8,376c-1.9,0-3.2,0-4.5,0c-84.4,0-168.9,0-253.3,0c-15.5,0-25.6,13-21.4,27.2
		c2.6,8.6,9.9,14.2,19.6,14.7c4,0.2,6.8,1.7,7.5,5.8c0.8,4.9-2.4,8.2-7.7,8.2c-17.8,0.1-33.4-15.1-34.2-33.2c0-1-0.1-2-0.1-3.1
		c0-106.4,0-212.9,0-319.3c0-18.7,11.8-32.8,29.9-35.9c2.3-0.4,4.6-0.4,7-0.4c82.7,0,165.4,0,248.1,0c14.5,0,23.1,8.6,23.1,23.1
		c0,115.3,0,230.7,0,346c0,14.2-8.7,22.9-22.9,22.9c-45.4,0-90.7,0-136.1,0c-3.3,0-6.5-0.1-8.3-3.5c-2.5-4.5,0.2-9.9,5.4-10.4
		c1.4-0.2,2.9-0.1,4.4-0.1c44.5,0,89,0,133.4,0c8.1,0,10.1-1.9,10.1-10C383.8,397.6,383.8,387.1,383.8,376z M383.8,362
		c0-1.5,0-2.4,0-3.2c0-98.7,0-197.4,0-296.1c0-6.6-2.4-8.7-9.6-8.7c-82.4,0-164.8,0-247.2,0c-15,0-23.2,8.3-23.2,23.3
		c0,95.6,0,191.3,0,286.9c0,1.4,0.1,2.8,0.2,4.9c8.9-6.8,18.7-7.2,28.7-7.2c81.8,0.1,163.6,0.1,245.4,0.1
		C379.8,362,381.6,362,383.8,362z"/>
	<path fill="#2F5392" d="M201.7,434.8c0-10,0-20.1,0-30.8c-1.6,0-3.1,0-4.7,0c-22.9,0-45.8,0-68.7,0c-1.5,0-2.9,0.1-4.4-0.1
		c-3.9-0.5-6.4-3.4-6.1-7.2c0.3-3.9,2.4-6.2,6.3-6.6c1.2-0.1,2.3-0.1,3.5-0.1c77.3,0,154.6,0,231.9,0c1.3,0,2.6-0.1,3.9,0.1
		c3.9,0.4,6.4,3.1,6.4,7c0,3.8-2.5,6.5-6.5,6.9c-1.4,0.1-2.9,0.1-4.4,0.1c-45.8,0-91.6,0-137.4,0c-1.7,0-3.5,0-5.8,0
		c0,1.8,0,3.3,0,4.9c0,14.1,0,28.3,0,42.4c0,3.7-0.9,6.6-4.5,8.1c-3.5,1.4-6.1-0.2-8.6-2.6c-7.2-7.2-14.4-14.4-22-21.9
		c-6.7,6.8-13.3,13.4-19.8,19.9c-1.1,1.1-2.1,2.8-3.5,3.2c-2.3,0.8-5.3,1.8-7.2,1c-1.9-0.8-4.1-3.7-4.2-5.8
		c-0.4-9.6-0.3-19.2-0.1-28.9c0.1-4,3-6.4,6.9-6.4c3.9,0,6.7,2.4,6.9,6.4c0.2,3.5,0,7,0,11.7c5-5,9.3-9.3,13.5-13.5
		c6.3-6.3,8.8-6.4,15.2,0.1c4.2,4.2,8.2,8.6,12.3,12.8C201,435.3,201.3,435.1,201.7,434.8z"/>
	<path fill="#2F5392" d="M177.1,172.5c-4.8-2.5-9.4-4.6-13.6-7.4c-4.2-2.8-4.8-6.6-2.3-10.1c2.6-3.7,6.2-3.9,10.7-0.9
		c8.1,5.4,16.8,6,25.9,3.3c3.1-0.9,6-2.3,9-3.3c9.7-3.4,19.4-6.8,30-10.5c0-2.7,0-6.9,0-11.1c0.1-5.3,2.5-8.4,6.8-8.5
		c4.5-0.1,7.1,3,7.2,8.5c0,4.1,0,8.1,0,12.6c2.7,0.4,5.4,0.4,7.8,1.2c8.1,2.7,16.2,5.6,24.2,8.7c7.6,2.9,15.2,5.4,23.4,3.1
		c3.6-1,7-2.7,10.3-4.6c3.9-2.2,7.2-2,9.7,1.1c2.6,3.3,2.4,7.3-1.3,9.9c-4.4,3-9.3,5.3-14.3,8.1c0.7,1.6,1.5,3.7,2.5,5.8
		c6.4,14.5,12.7,29.1,19.4,43.5c2.1,4.6,2.6,9,1.6,13.9c-3.6,18.7-18.2,29.6-37.8,28.1c-18-1.4-31.1-15.4-31.4-33.8
		c0-2.1,0.7-4.3,1.6-6.2c6.8-15.6,13.8-31.2,20.7-46.7c0.7-1.6,1.3-3.2,2-4.8c-9.5-3.7-18.6-7.9-28.1-10.8
		c-15.1-4.7-29.9-3.1-44.3,3.4c-5.8,2.6-11.8,4.9-18.2,7.5c0.4,1,0.9,2.4,1.5,3.8c6.7,15.2,13.3,30.4,20.3,45.5
		c2.2,4.8,2.6,9.3,1.6,14.4c-3.6,17.6-16.6,28.1-34.9,27.9c-17.8-0.2-30.6-11.4-33.6-29c-0.8-4.5-0.3-8.5,1.6-12.7
		c7-15.4,13.8-30.8,20.6-46.3C176.2,174.7,176.8,173.4,177.1,172.5z M204.9,221.7c-5.7-12.8-11.2-25.2-17.1-38.5
		c-6,13.5-11.4,25.9-17,38.5C182.4,221.7,193.3,221.7,204.9,221.7z M316.9,221.8c-5.7-12.8-11.2-25.2-17.1-38.5
		c-6,13.5-11.4,25.8-17.1,38.5C294.4,221.8,305.3,221.8,316.9,221.8z M168.5,236.1c2.4,9.6,11,14.8,21.8,13.7
		c9.2-0.9,16.1-6.7,16.4-13.7C194.1,236.1,181.5,236.1,168.5,236.1z M280.4,236.2c2.4,9.7,11.2,15,22.3,13.7c9-1,15.8-6.8,16-13.7
		C306,236.2,293.4,236.2,280.4,236.2z"/>
	<path fill="#2F5392" d="M236.8,278c0-2.2,0-3.9,0-5.6c0-29.7,0-59.5,0-89.2c0-1.6-0.1-3.3,0.2-4.8c0.8-3.6,3.1-5.5,6.9-5.4
		c3.7,0.1,6,2,6.7,5.7c0.3,1.4,0.1,2.9,0.1,4.4c0,29.9,0,59.8,0,89.7c0,1.6,0,3.2,0,5.3c8.4,0,16.5,0,24.6,0c7.4,0,10.4,2,10.5,6.9
		c0.1,5.1-2.9,7.1-10.6,7.1c-21.1,0-42.3,0-63.4,0c-1,0-2,0-3.1,0c-4.3-0.3-6.9-2.9-7-6.9c0-4.1,2.7-7,7.2-7.1
		c7.7-0.1,15.5,0,23.2,0C233.6,278,235,278,236.8,278z"/>
</g>
</svg>
