<?xml version="1.0" encoding="utf-8"?>
<!-- Generator: Adobe Illustrator 24.0.2, SVG Export Plug-In . SVG Version: 6.00 Build 0)  -->
<svg version="1.2" baseProfile="tiny" id="Capa_1" xmlns="http://www.w3.org/2000/svg" xmlns:xlink="http://www.w3.org/1999/xlink"
	 x="0px" y="0px" viewBox="0 0 141.7 141.7" xml:space="preserve">
<path fill="#FFFFFF" d="M-124.5,84.5"/>
<path fill="none" d="M-83.2,76.8"/>
<g>
	<linearGradient id="SVGID_1_" gradientUnits="userSpaceOnUse" x1="70.7079" y1="117.0376" x2="70.7079" y2="23.8139">
		<stop  offset="0" style="stop-color:#68A6DD"/>
		<stop  offset="1" style="stop-color:#2F5392"/>
	</linearGradient>
	<polyline fill="none" stroke="url(#SVGID_1_)" stroke-width="4" stroke-linecap="round" stroke-miterlimit="10" points="3.3,77.2 
		49.8,26.7 138.1,115 	"/>
	<linearGradient id="SVGID_2_" gradientUnits="userSpaceOnUse" x1="111.5981" y1="79.1782" x2="111.5981" y2="38.8805">
		<stop  offset="0" style="stop-color:#68A6DD"/>
		<stop  offset="1" style="stop-color:#2F5392"/>
	</linearGradient>
	<polyline fill="none" stroke="url(#SVGID_2_)" stroke-width="4" stroke-linecap="round" stroke-miterlimit="10" points="85.1,62 
		103.2,41.8 138.1,77.2 	"/>
	<linearGradient id="SVGID_3_" gradientUnits="userSpaceOnUse" x1="54.0042" y1="105.5923" x2="54.0042" y2="37.8154">
		<stop  offset="0" style="stop-color:#68A6DD"/>
		<stop  offset="1" style="stop-color:#2F5392"/>
	</linearGradient>
	<path fill="none" stroke="url(#SVGID_3_)" stroke-width="4" stroke-linecap="round" stroke-miterlimit="10" d="M51.5,39.8
		c0,0-13.4,7.2-10.1,8.7c9.9-1.1,28.5,10.1,27.2,17.5c-4,11.6-39.3,9.2-50.5,27.7c-7.4,20.5,70.5,1.2,72.3,9.2"/>
	<linearGradient id="SVGID_4_" gradientUnits="userSpaceOnUse" x1="49.5508" y1="22.3936" x2="49.5508" y2="9.9766">
		<stop  offset="0" style="stop-color:#68A6DD"/>
		<stop  offset="1" style="stop-color:#2F5392"/>
	</linearGradient>
	
		<line fill="none" stroke="url(#SVGID_4_)" stroke-width="4" stroke-linecap="round" stroke-miterlimit="10" x1="49.6" y1="20.4" x2="49.6" y2="12"/>
	<linearGradient id="SVGID_5_" gradientUnits="userSpaceOnUse" x1="57.1806" y1="25.2793" x2="57.1806" y2="14.1851">
		<stop  offset="0" style="stop-color:#68A6DD"/>
		<stop  offset="1" style="stop-color:#2F5392"/>
	</linearGradient>
	
		<line fill="none" stroke="url(#SVGID_5_)" stroke-width="4" stroke-linecap="round" stroke-miterlimit="10" x1="54.9" y1="23.3" x2="59.4" y2="16.2"/>
	<linearGradient id="SVGID_6_" gradientUnits="userSpaceOnUse" x1="42.7636" y1="24.4605" x2="42.7636" y2="13.5576">
		<stop  offset="0" style="stop-color:#68A6DD"/>
		<stop  offset="1" style="stop-color:#2F5392"/>
	</linearGradient>
	
		<line fill="none" stroke="url(#SVGID_6_)" stroke-width="4" stroke-linecap="round" stroke-miterlimit="10" x1="45.2" y1="22.5" x2="40.4" y2="15.6"/>
</g>
</svg>
