<?xml version="1.0" encoding="utf-8"?>
<!-- Generator: Adobe Illustrator 24.0.2, SVG Export Plug-In . SVG Version: 6.00 Build 0)  -->
<svg version="1.2" baseProfile="tiny" id="Capa_1" xmlns="http://www.w3.org/2000/svg" xmlns:xlink="http://www.w3.org/1999/xlink"
	 x="0px" y="0px" viewBox="0 0 141.7 141.7" xml:space="preserve">
<linearGradient id="SVGID_1_" gradientUnits="userSpaceOnUse" x1="55.1385" y1="77.2658" x2="88.2444" y2="77.2658">
	<stop  offset="0" style="stop-color:#2F5392"/>
	<stop  offset="1" style="stop-color:#68A6DD"/>
</linearGradient>
<path fill="none" stroke="url(#SVGID_1_)" stroke-width="2" stroke-linecap="round" stroke-miterlimit="10" d="M86.9,81.1L71.7,65.9
	L56.5,82.4c3.6,4.1,8.8,6.7,14.7,6.7c1.7,0,3.3-0.2,4.9-0.6c-4.2-2-8.6-3.2-12-2.8c-2.9-1.4,9.2-7.9,9.2-7.9s-12.1,6.5-9.2,7.9
	c3.3-0.4,7.8,0.8,12,2.8C80.5,87.3,84.3,84.7,86.9,81.1z"/>
<linearGradient id="SVGID_2_" gradientUnits="userSpaceOnUse" x1="71.1738" y1="122.3706" x2="71.1738" y2="15.3076">
	<stop  offset="0" style="stop-color:#2F5392"/>
	<stop  offset="1" style="stop-color:#68A6DD"/>
</linearGradient>
<path fill="none" stroke="url(#SVGID_2_)" stroke-width="4" stroke-linecap="round" stroke-miterlimit="10" d="M71.2,17.3
	c-28.5,0-51.5,23.1-51.5,51.5c0,28.5,23.1,51.5,51.5,51.5c28.5,0,51.5-23.1,51.5-51.5C122.7,40.4,99.6,17.3,71.2,17.3z M71.2,89.1
	c-10.8,0-19.5-8.7-19.5-19.5c0-10.8,8.7-19.5,19.5-19.5c10.8,0,19.5,8.7,19.5,19.5C90.7,80.4,81.9,89.1,71.2,89.1z"/>
<line fill="none" stroke="#68A6DD" stroke-width="4" stroke-linecap="round" stroke-miterlimit="10" x1="71.2" y1="33.1" x2="71.2" y2="9.2"/>
<linearGradient id="SVGID_3_" gradientUnits="userSpaceOnUse" x1="105.6865" y1="70.1588" x2="133.6484" y2="70.1588">
	<stop  offset="0" style="stop-color:#68A6DD"/>
	<stop  offset="1" style="stop-color:#2F5392"/>
</linearGradient>
<line fill="none" stroke="url(#SVGID_3_)" stroke-width="4" stroke-linecap="round" stroke-miterlimit="10" x1="131.6" y1="70.1" x2="107.7" y2="70.2"/>
<linearGradient id="SVGID_4_" gradientUnits="userSpaceOnUse" x1="8.5859" y1="69.6075" x2="36.5468" y2="69.6075">
	<stop  offset="0" style="stop-color:#2F5392"/>
	<stop  offset="1" style="stop-color:#68A6DD"/>
</linearGradient>
<line fill="none" stroke="url(#SVGID_4_)" stroke-width="4" stroke-linecap="round" stroke-miterlimit="10" x1="34.5" y1="69.6" x2="10.6" y2="69.6"/>
<line fill="none" stroke="#2F5392" stroke-width="4" stroke-linecap="round" stroke-miterlimit="10" x1="71.2" y1="130.1" x2="71.2" y2="106.1"/>
<linearGradient id="SVGID_5_" gradientUnits="userSpaceOnUse" x1="50.6699" y1="66.5032" x2="91.6797" y2="66.5032">
	<stop  offset="0" style="stop-color:#2F5392"/>
	<stop  offset="1" style="stop-color:#68A6DD"/>
</linearGradient>
<path fill="none" stroke="url(#SVGID_5_)" stroke-width="2" stroke-linecap="round" stroke-miterlimit="10" d="M86.9,81.1
	c2.3-3.2,3.7-7.2,3.7-11.5c0-10.8-8.7-19.5-19.5-19.5c-10.8,0-19.5,8.7-19.5,19.5c0,4.9,1.8,9.4,4.8,12.8l15.2-16.5L86.9,81.1z
	 M80.5,56.3l-4.1,6.4L80.5,56.3z M63.2,55.8l4.4,6.3L63.2,55.8z M71.5,60.1v-7.6V60.1z"/>
</svg>
